<svg height="450" viewBox="0 0 450 450" width="450" xmlns="http://www.w3.org/2000/svg"><path d="m67.973999 125.440002c-6.520004 0-11.770004 5.440003-11.770004 12.210022v51.440003c0 6.759964 5.25 12.209976 11.770004 12.209976h2.869995v-64.959976h307.330017v64.959976h2.860016c6.519989 0 11.769989-5.450012 11.769989-12.209976v-51.440003c0-6.770019-5.25-12.210022-11.769989-12.210022z" fill="#fff"/><path d="m38.476563 448.339844v-265.75h372.050781v265.75zm19.626953-17.150391h334.710937v-160.019531h-334.710937zm26.541015-179.603515c14.676956 0 26.574219-11.899216 26.574219-26.576172 0-14.676957-11.897263-26.574219-26.574219-26.574219-14.676948 0-26.576172 11.897262-26.576172 26.574219 0 14.676956 11.899224 26.576172 26.576172 26.576172zm279.710938 0c14.676971 0 26.574219-11.899231 26.574219-26.576172s-11.897248-26.574219-26.574219-26.574219c-14.676972 0-26.576172 11.897278-26.576172 26.574219s11.8992 26.576172 26.576172 26.576172zm-237.291016-15.757813h194.878906v-33.738281h-194.878906z" fill="#fff" fill-rule="evenodd"/><path d="m107.865997 182.590027v-170.910034" fill="none" stroke="#fff" stroke-linecap="round" stroke-linejoin="round" stroke-width="7.5"/><path d="m113.865997 182.590027v-170.910034" fill="none" stroke="#fff" stroke-linecap="round" stroke-linejoin="round" stroke-width="7.5"/><path d="m102.865997 182.590027v-170.910034" fill="none" stroke="#fff" stroke-linecap="round" stroke-linejoin="round" stroke-width="7.5"/><path d="m126.611 18.899994c0 9.5242-7.720848 17.245026-17.245003 17.245026-9.524147 0-17.244995-7.720826-17.244995-17.245026 0-9.52414 7.720848-17.244995 17.244995-17.244995 9.524155 0 17.245003 7.720855 17.245003 17.244995z" fill="#fff"/><g fill="none" stroke-linecap="round" stroke-linejoin="round"><path d="m149.500793 209.969986v17.990021" stroke="#000" stroke-width="1.6148"/><path d="m174.500809 209.969986v17.990021" stroke="#000" stroke-width="1.6148"/><path d="m199.500809 209.969986v17.990021" stroke="#000" stroke-width="1.6148"/><path d="m224.500809 209.969986v17.990021" stroke="#000" stroke-width="1.6148"/><path d="m249.500809 209.969986v17.990021" stroke="#000" stroke-width="1.6148"/><path d="m274.500793 209.969986v17.990021" stroke="#000" stroke-width="1.6148"/><path d="m299.500793 209.969986v17.990021" stroke="#000" stroke-width="1.6148"/><path d="m154.5 213.289993v11.350006" stroke="#000" stroke-width="1.6148"/><path d="m179.5 213.289993v11.350006" stroke="#000" stroke-width="1.6148"/><path d="m204.5 213.289993v11.350006" stroke="#000" stroke-width="1.6148"/><path d="m229.5 213.289993v11.350006" stroke="#000" stroke-width="1.6148"/><path d="m254.5 213.289993v11.350006" stroke="#000" stroke-width="1.6148"/><path d="m279.5 213.289993v11.350006" stroke="#000" stroke-width="1.6148"/><path d="m304.5 213.289993v11.350006" stroke="#000" stroke-width="1.6148"/><path d="m159.5 213.289993v11.350006" stroke="#000" stroke-width="1.6148"/><path d="m184.5 213.289993v11.350006" stroke="#000" stroke-width="1.6148"/><path d="m209.5 213.289993v11.350006" stroke="#000" stroke-width="1.6148"/><path d="m234.5 213.289993v11.350006" stroke="#000" stroke-width="1.6148"/><path d="m259.5 213.289993v11.350006" stroke="#000" stroke-width="1.6148"/><path d="m284.5 213.289993v11.350006" stroke="#000" stroke-width="1.6148"/><path d="m309.5 213.289993v11.350006" stroke="#000" stroke-width="1.6148"/><path d="m164.5 213.289993v11.350006" stroke="#000" stroke-width="1.6148"/><path d="m189.5 213.289993v11.350006" stroke="#000" stroke-width="1.6148"/><path d="m214.5 213.289993v11.350006" stroke="#000" stroke-width="1.6148"/><path d="m239.5 213.289993v11.350006" stroke="#000" stroke-width="1.6148"/><path d="m264.5 213.289993v11.350006" stroke="#000" stroke-width="1.6148"/><path d="m289.5 213.289993v11.350006" stroke="#000" stroke-width="1.6148"/><path d="m314.5 213.289993v11.350006" stroke="#000" stroke-width="1.6148"/><path d="m169.5 213.289993v11.350006" stroke="#000" stroke-width="1.6148"/><path d="m194.5 213.289993v11.350006" stroke="#000" stroke-width="1.6148"/><path d="m219.5 213.289993v11.350006" stroke="#000" stroke-width="1.6148"/><path d="m244.5 213.289993v11.350006" stroke="#000" stroke-width="1.6148"/><path d="m269.5 213.289993v11.350006" stroke="#000" stroke-width="1.6148"/><path d="m294.5 213.289993v11.350006" stroke="#000" stroke-width="1.6148"/><path d="m134.5 213.289993v11.350006" stroke="#000" stroke-width="1.6148"/><path d="m139.5 213.289993v11.350006" stroke="#000" stroke-width="1.6148"/><path d="m144.5 213.289993v11.350006" stroke="#000" stroke-width="1.6148"/></g><path d="m257.679993 208.180008h7.724701v27.562988h-7.724701z"/></svg>