<svg width="34" height="48" viewBox="0 0 34 48" xmlns="http://www.w3.org/2000/svg" xmlns:xlink="http://www.w3.org/1999/xlink">
    <g id="layer1">
        <path id="rect3068" fill="none" stroke="none" d="M -0.365 0.007004 L 47.634998 0.007004 L 47.634998 48.007004 L -0.365 48.007004 Z"/>
        <g id="g3951">
            <path id="path3624" fill="none" stroke="none" d="M 23.153076 0.41264 C 22.798624 0.383438 22.297094 0.587418 21.592314 1.069809 C 18.773041 2.999409 8.531132 14.172108 8.531132 14.172108 C 8.4418 14.172108 8.371402 14.203724 8.284697 14.213234 L 0.390019 14.213234 L 0.390019 33.846123 L 8.53151 33.846123 C 8.53151 33.846123 18.591532 45.05999 21.592695 46.989544 C 24.593777 48.919098 23.974958 45.920799 23.974958 44.607334 L 23.974958 3.411087 C 23.974958 2.425842 24.216871 0.500488 23.153536 0.412785 L 23.153536 0.413029 Z"/>
            <path id="path2842" fill="#ffffff" stroke="none" d="M 23.153076 0.41264 C 22.798624 0.383438 22.297094 0.587418 21.592314 1.069809 C 18.773041 2.999409 8.531132 14.172108 8.531132 14.172108 C 8.4418 14.172108 8.371402 14.203724 8.284697 14.213234 L 0.390019 14.213234 L 0.390019 33.846123 L 8.53151 33.846123 C 8.53151 33.846123 18.591532 45.05999 21.592695 46.989544 C 24.593777 48.919098 23.974958 45.920799 23.974958 44.607334 L 23.974958 3.411087 C 23.974958 2.425842 24.216871 0.500488 23.153536 0.412785 L 23.153536 0.413029 Z"/>
            <path id="rect2830" fill="#ffffff" stroke="none" d="M 22.184322 2.690208 C 21.86673 2.664192 21.4174 2.846836 20.785915 3.279026 C 18.259878 5.007931 8.814483 15.42205 8.814483 15.42205 C 8.734435 15.42205 8.671368 15.451302 8.593678 15.459217 L 1.491085 15.459217 L 1.491085 28.523531 C 5.536762 27.907055 9.838191 26.956758 14.261247 25.689775 C 17.201752 24.847309 20.120749 23.769634 22.786287 22.758423 L 22.92078 5.376987 C 22.92078 4.494217 23.137529 2.769077 22.184757 2.690498 L 22.184757 2.690304 Z"/>
            <path id="path4005" fill="#ffffff" stroke="none" d="M 28.083048 11.492039 L 26.096746 13.35006 C 26.096746 13.35006 30.767487 16.637001 30.767487 23.803904 C 30.767487 30.970421 26.12142 34.035522 26.12142 34.035522 L 28.058296 36.111427 C 28.058296 36.111427 33.683636 31.563343 33.683636 23.804676 C 33.683636 16.045479 28.08297 11.493195 28.08297 11.493195 Z"/>
            <path id="path3943" fill="#ffffff" stroke="none" d="M 28.083048 11.492039 L 26.096746 13.35006 C 26.096746 13.35006 30.767487 16.637001 30.767487 23.803904 C 30.767487 30.970421 26.12142 34.035522 26.12142 34.035522 L 28.058296 36.111427 C 28.058296 36.111427 33.683636 31.563343 33.683636 23.804676 C 33.683636 16.045479 28.08297 11.493195 28.08297 11.493195 Z"/>
        </g>
    </g>
</svg>
