<svg width="48" height="48" viewBox="0 0 48 48" xmlns="http://www.w3.org/2000/svg" xmlns:xlink="http://www.w3.org/1999/xlink">
    <g id="layer1">
        <path id="rect3068" fill="none" stroke="none" d="M -0 -0.002995 L 48 -0.002995 L 48 47.997005 L -0 47.997005 Z"/>
        <g id="g3951">
            <path id="path3624" fill="none" stroke="none" d="M 23.518078 0.402641 C 23.163624 0.37344 22.662094 0.577419 21.957314 1.059807 C 19.138041 2.98941 8.896132 14.162109 8.896132 14.162109 C 8.806801 14.162109 8.736402 14.193722 8.649696 14.203232 L 0.755019 14.203232 L 0.755019 33.836121 L 8.896511 33.836121 C 8.896511 33.836121 18.956532 45.049992 21.957695 46.979546 C 24.958776 48.9091 24.339958 45.910801 24.339958 44.597336 L 24.339958 3.401085 C 24.339958 2.415844 24.581871 0.49049 23.518536 0.402786 L 23.518536 0.403027 Z"/>
            <path id="path2842" fill="#ffffff" stroke="none" d="M 23.518078 0.402641 C 23.163624 0.37344 22.662094 0.577419 21.957314 1.059807 C 19.138041 2.98941 8.896132 14.162109 8.896132 14.162109 C 8.806801 14.162109 8.736402 14.193722 8.649696 14.203232 L 0.755019 14.203232 L 0.755019 33.836121 L 8.896511 33.836121 C 8.896511 33.836121 18.956532 45.049992 21.957695 46.979546 C 24.958776 48.9091 24.339958 45.910801 24.339958 44.597336 L 24.339958 3.401085 C 24.339958 2.415844 24.581871 0.49049 23.518536 0.402786 L 23.518536 0.403027 Z"/>
            <linearGradient id="linearGradient1" x1="31.761584" y1="0.513345" x2="31.761584" y2="47.464328" gradientUnits="userSpaceOnUse">
                <stop offset="1e-05" stop-color="#57b7ec" stop-opacity="1"/>
                <stop offset="1" stop-color="#066b9d" stop-opacity="1"/>
            </linearGradient>
            <path id="path4005" fill="url(#linearGradient1)" stroke="none" d="M 28.448048 11.482037 L 26.461746 13.340057 C 26.461746 13.340057 31.132488 16.627001 31.132488 23.793903 C 31.132488 30.960421 26.48642 34.025524 26.48642 34.025524 L 28.423296 36.101425 C 28.423296 36.101425 34.048637 31.553343 34.048637 23.794676 C 34.048637 16.035479 28.447969 11.483196 28.447969 11.483196 Z"/>
            <path id="path4007" fill="#ffffff" stroke="none" d="M 34.277973 6.832012 L 32.368935 8.476883 C 32.368935 8.476883 33.635906 9.668518 34.939098 12.208614 C 36.24229 14.748657 37.558689 18.609842 37.558689 23.873207 C 37.558689 29.136572 36.238811 32.890167 34.939098 35.340145 C 33.639385 37.790028 32.393608 38.874027 32.393608 38.874027 L 34.169788 40.543804 C 34.169788 40.543804 36.315128 38.606236 37.70689 35.98259 C 39.098656 33.358944 40.474762 29.360922 40.474762 23.873547 C 40.474762 18.385784 39.095177 14.296726 37.70689 11.591316 C 36.318604 8.885277 34.27837 6.811932 34.27837 6.811932 Z"/>
            <path id="path3939" fill="#ffffff" stroke="none" d="M 39.443607 1.90517 L 37.68198 3.62809 C 37.68198 3.62809 39.301579 5.190231 40.968784 8.546001 C 42.63599 11.901775 44.305096 17.006193 44.305096 23.942472 C 44.305096 30.878847 42.632671 35.853039 40.968784 39.091423 C 39.304977 42.330292 37.706654 43.786919 37.706654 43.786919 L 39.507587 45.393368 C 39.507587 45.393368 42.009346 43.119759 43.761406 39.709351 C 45.513863 36.308784 47.246552 31.089392 47.246552 23.972012 C 47.246552 16.81848 45.510624 11.502357 43.762039 7.98238 C 42.013378 4.462788 39.444244 1.934662 39.444244 1.934662 Z"/>
            <path id="path3943" fill="#ffffff" stroke="none" d="M 28.448048 11.482037 L 26.461746 13.340057 C 26.461746 13.340057 31.132488 16.627001 31.132488 23.793903 C 31.132488 30.960421 26.48642 34.025524 26.48642 34.025524 L 28.423296 36.101425 C 28.423296 36.101425 34.048637 31.553343 34.048637 23.794676 C 34.048637 16.035479 28.447969 11.483196 28.447969 11.483196 Z"/>
        </g>
    </g>
</svg>
